<?xml version="1.0" encoding="utf-8"?>
<!-- Generator: Adobe Illustrator 22.1.0, SVG Export Plug-In . SVG Version: 6.00 Build 0)  -->
<svg version="1.1" id="Layer_1" xmlns="http://www.w3.org/2000/svg" xmlns:xlink="http://www.w3.org/1999/xlink" x="0px" y="0px"
	 viewBox="0 0 504 505" style="enable-background:new 0 0 504 505;" xml:space="preserve">
<style type="text/css">
	.st0{fill:#FFFFFF;}
	
		.st1{clip-path:url(#SVGID_2_);fill:none;stroke:#2B3990;stroke-width:1.599;stroke-linecap:round;stroke-linejoin:round;stroke-miterlimit:10;}
	.st2{clip-path:url(#SVGID_2_);}
	
		.st3{clip-path:url(#SVGID_4_);fill:none;stroke:#2B3990;stroke-width:1.599;stroke-linecap:round;stroke-linejoin:round;stroke-miterlimit:10;}
	.st4{clip-path:url(#SVGID_4_);fill:#2B3990;}
	.st5{clip-path:url(#SVGID_4_);fill:none;stroke:#FFFFFF;stroke-width:10.422;stroke-miterlimit:10;}
	.st6{font-family:'Rockwell-Bold';}
	.st7{font-size:45.0002px;}
	.st8{font-size:45.0001px;}
	.st9{font-size:45px;}
	.st10{font-size:43.8134px;}
	.st11{font-size:43.8133px;}
	.st12{clip-path:url(#SVGID_6_);fill:none;stroke:#2B3990;stroke-width:10;stroke-miterlimit:10;}
	.st13{fill:#2B3990;}
	.st14{font-size:21.6598px;}
	.st15{letter-spacing:1;}
	.st16{clip-path:url(#SVGID_8_);fill:#FFFFFF;}
	.st17{clip-path:url(#SVGID_8_);fill:none;stroke:#2B3990;stroke-width:10;stroke-miterlimit:10;}
</style>
<circle class="st0" cx="251" cy="252" r="247.5"/>
<g>
	<g>
		<defs>
			<rect id="SVGID_1_" x="-145" y="-57" width="792" height="612"/>
		</defs>
		<clipPath id="SVGID_2_">
			<use xlink:href="#SVGID_1_"  style="overflow:visible;"/>
		</clipPath>
		<line class="st1" x1="258.3" y1="272.6" x2="273.9" y2="204.4"/>
		<g class="st2">
			<defs>
				<rect id="SVGID_3_" x="-145" y="-57" width="792" height="612"/>
			</defs>
			<clipPath id="SVGID_4_">
				<use xlink:href="#SVGID_3_"  style="overflow:visible;"/>
			</clipPath>
			<path class="st3" d="M273.6,273.7c0,0,0.2-69.5,0.2-68.6l15.6,68.2"/>
			<line class="st3" x1="368.4" y1="272.6" x2="384.1" y2="204.4"/>
			<path class="st3" d="M383.7,273.7c0,0,0.2-69.5,0.2-68.6l15.6,68.2"/>
			<path class="st4" d="M391,193c-5-0.9-6,4.5-2.8,4.4c0.3,0,1-0.1,1.2,0.2c2.4,2.4-1.3,6.1-8.4,2.6c-1.7-0.9-3.8-2.3-5.6-3.8
				c-16.4-15.9-33.8-13.9-44.3-3.9c0.3-4.7,0.5-10.6,0.5-17.1c0-6.8-0.2-12.9-0.6-17.7c6.2,0.2,6.4-0.5,6.6-3c0.1-2-2.5-2.9-2.5-2.9
				s-2.5-4.5-3.6-6.5c-1.1-2-0.6-4.4-3.7-5.5c-3.1-1.1-5,0-11.9,1.8c-6.3,1.6-9.2,1.6-12.8,1.6c-3.6,0-7.1,0.5-13.9,5.5
				c0,0-13.1,7.8-24.7,14.6c-11.5,6.8-9.2,7.6-16.5,10.8c-7.3,3.2-21,9.6-24,10.5c-3,0.9-6.4-0.2-11.4,0.4c-0.2-5.2,1.2-11.5,3-13.7
				c1.8-2.1,8.9-2.7,9.1-7.1c0.2-4.4,0-10.7,0.2-13.1c0.2-2.5,1.1-7.3-2-10.3c-1.2-2.5,0-3,1.4-4.8c1.4-1.8,2.7-3,0.4-5.9
				c-2.3-2.8-2-2.8-2.8-4.3c-0.9-1.4-2.8-0.7-2.8-0.7s0.5-3-1.8-4.4c-2.3-1.4-5.7-1.2-5.9-3.7c-0.2-2.5-1.4-7.3-5.5-6.6
				c-4.1,0.7-5.9,3.2-5.3,5.3c-3.4-0.9-8-3.2-10.8-1.1c-2.8,2.1-2.3,5.3-6.4,7.8c-4.1,2.5-9.6,5.9-7.5,12.6c-1.4,3,0,6.6-0.2,8.2
				c-2.5,0.5-7.5-2-9.4,4.8c-2,6.8,4.8,18.5,10.5,18.8c4.4,0.9,6.8,1.9,5.5,4.3c-1.4,2.7,4.5,1.6,4.8,0.9c0,0-3.4,12.9-10.3,22.2
				c-6.1,8.2-11.6,19.7-7.6,33.8c-1,4.8-2.6,11.6-4.8,19c-1.8,4.1-3.7,9.4-6.6,11.2c-2.8,1.8-7.1,5-10.3,15.8c-1.4,3-1.6,6.6-3,6.4
				c-1.4-0.2-2.5-2.7-4.6-3.4c-0.1,0-0.3-0.1-0.4-0.1c0.4-0.3,0.6-0.8,0.6-1.3l0-0.2c-0.1-0.4-0.3-0.7-0.6-0.9
				c0.3-0.3,0.5-0.7,0.4-1.2l0-0.2c-0.1-0.4-0.3-0.7-0.6-0.9c0.3-0.3,0.5-0.7,0.4-1.2l0-0.2c-0.1-0.4-0.3-0.7-0.6-0.9
				c0.3-0.3,0.5-0.7,0.4-1.2l0-0.2c-0.1-0.4-0.3-0.7-0.6-0.9c0.3-0.3,0.5-0.7,0.4-1.2l0-0.2c-0.1-0.4-0.3-0.7-0.6-0.9
				c0.3-0.3,0.5-0.7,0.4-1.2l0-0.2c-0.1-0.4-0.3-0.7-0.6-0.9c0.3-0.3,0.5-0.7,0.4-1.2l0-0.2c-0.1-0.4-0.3-0.7-0.6-0.9
				c0.3-0.3,0.5-0.7,0.4-1.2l0-0.2c-0.1-0.4-0.3-0.7-0.6-0.9c0.3-0.3,0.5-0.7,0.4-1.2l0-0.2c-0.1-0.4-0.3-0.7-0.5-0.9
				c0.9-0.6,1.4-1.6,1.2-2.7l-0.6-3.8c-0.2-1.5-1.7-2.5-3.2-2.3l-5.8,0.9c-1.5,0.2-2.5,1.7-2.3,3.2l0.6,3.8c0.2,1.1,1,1.9,2,2.2
				c-0.2,0.3-0.3,0.6-0.2,1l0,0.2c0.1,0.4,0.3,0.7,0.6,0.9c-0.3,0.3-0.5,0.7-0.4,1.2l0,0.2c0.1,0.4,0.3,0.7,0.6,0.9
				c-0.3,0.3-0.5,0.7-0.4,1.2l0,0.2c0.1,0.4,0.3,0.7,0.6,0.9c-0.3,0.3-0.5,0.7-0.4,1.2l0,0.2c0.1,0.4,0.3,0.7,0.6,0.9
				c-0.3,0.3-0.5,0.7-0.4,1.2l0,0.2c0.1,0.4,0.3,0.7,0.6,0.9c-0.3,0.3-0.5,0.7-0.4,1.2l0,0.2c0.1,0.4,0.3,0.7,0.6,0.9
				c-0.3,0.3-0.5,0.7-0.4,1.2l0,0.2c0.1,0.4,0.3,0.7,0.6,0.9c-0.3,0.3-0.5,0.7-0.4,1.2l0,0.2c0.1,0.4,0.3,0.7,0.6,0.9
				c-0.3,0.3-0.5,0.7-0.4,1.2l0,0.2c0,0.2,0.1,0.3,0.2,0.5c-2.4,0.2-5,1.3-3.8,7.2c1.2,4.6,0.3,8.8-0.4,10.9
				c-0.6,1.9,0.8,5.5,2.6,6.9c-3.8,1.5-8.1,3.6-11.4,6.2c-1.9,1.6-1.1,2.1,0.3,6.4c1.3,4.3,4,12,4,12s1.8,2.4,4.2-1.2
				c0.5-1.4-2.3-9.1,8.2-15.7L161.9,456c0,0,73.4,31.9,78,8.2c5.1-27,11.2-62.7,13.5-108.3c0.3-29.3-0.5-40.2-0.8-50.1
				c-0.3-9.9,2.2-15.4-3.4-28.7c-5.7-13.5-3.6-17.4-4.4-24.3c-0.8-6.9-1.9-9.3-2.1-12c-0.3-2.7,3.2-3.5,3.7-13.3
				c0.3-6.1,0-7.5-7.7-13.6c-5.1-4-8.5-6.9-8.5-6.9s13-6,18.8-8.3c8.4-3.4,19-8.7,23.3-12.6c12.3-11.4,17.1-20.3,28.2-28.6
				c8,2.9,17.1,1.3,18.7-0.3c2.7,3.2,4.7,3.6,8.5,1.7c-0.3,4.6-0.5,10.3-0.5,16.5c0,6.7,0.2,12.8,0.5,17.5
				c-10.4-10.3-28.1-12.5-44.7,3.5c-1.7,1.5-3.8,3-5.6,3.8c-7.2,3.6-10.8-0.2-8.4-2.6c0.2-0.3,0.9-0.2,1.2-0.2
				c3.2,0.1,2.2-5.3-2.8-4.4c-4.1,0.8-7.2,9,1.4,12.2c8.8,3.3,18.4-2.5,25.4-6.4c8-4.5,24.4-5.2,34,5.5c0.1,5.5,0.5,9.6,1,9.6
				c0.5,0,0.9-4.2,1-9.8c9.7-10.5,25.9-9.8,33.9-5.4c6.9,3.9,16.6,9.6,25.4,6.4C398.2,202,395.2,193.8,391,193 M171.5,370.8
				c-2.6,39.7,1.9,56.8-0.9,76.5l-22.6-140c12,1.5,12.8,9.5,13.9,10.6c3.7,2.2,4.3-0.7,4.3-0.7s-0.9-8.1-1.6-12.5
				c-0.6-4.4-0.2-5.2-2.5-5.9c-4.8-1.1-10.5-0.9-15-0.5c0.4-0.2,0.7-0.4,1-0.6c3.4-2.1,13.7-10.8,15.5-12.8
				c1.8-2,10.8-9.8,12.8-14.7c2.3-5.7,4.3-4.1,5.9-16.7c0.1-0.4,0.1-0.9,0.2-1.3c8.5,11.9,17.3,21.9,17.9,29.1
				C201.4,294.2,175.6,309,171.5,370.8"/>
			<path class="st4" d="M255.6,272.7c-0.4,1.4-0.6,2.8-0.6,4.3c0,9.5,8.4,17.3,18.7,17.3c10.3,0,18.7-7.7,18.7-17.3
				c0-1.5-0.2-2.9-0.6-4.3H255.6z"/>
			<path class="st4" d="M365.7,272.7c-0.4,1.4-0.6,2.8-0.6,4.3c0,9.5,8.4,17.3,18.7,17.3c10.3,0,18.7-7.7,18.7-17.3
				c0-1.5-0.2-2.9-0.6-4.3H365.7z"/>
			<path class="st4" d="M252,22.8c-126.8,0-229.6,102.8-229.6,229.6S125.1,482.1,252,482.1c126.8,0,229.6-102.8,229.6-229.6
				S378.8,22.8,252,22.8 M252,425.1c-95.3,0-172.6-77.3-172.6-172.6S156.6,79.8,252,79.8c95.3,0,172.6,77.3,172.6,172.6
				S347.3,425.1,252,425.1"/>
			<circle class="st5" cx="253.2" cy="252.1" r="169.9"/>
		</g>
		<g class="st2">
			<text transform="matrix(0.4085 -0.9128 0.9128 0.4085 77.714 193.323)" class="st0 st6 st7">V</text>
		</g>
		<g class="st2">
			<text transform="matrix(0.5482 -0.8364 0.8364 0.5482 93.2753 160.3842)" class="st0 st6 st8">I</text>
		</g>
		<g class="st2">
			<text transform="matrix(0.677 -0.7359 0.7359 0.677 105.1945 141.396)" class="st0 st6 st8">R</text>
		</g>
		<g class="st2">
			<text transform="matrix(0.8157 -0.5785 0.5785 0.8157 129.1938 114.8925)" class="st0 st6 st8">G</text>
		</g>
		<g class="st2">
			<text transform="matrix(0.9039 -0.4278 0.4278 0.9039 164.3817 91.209)" class="st0 st6 st8">I</text>
		</g>
		<g class="st2">
			<text transform="matrix(0.9637 -0.2671 0.2671 0.9637 184.3579 81.105)" class="st0 st6 st8">N</text>
		</g>
		<g class="st2">
			<text transform="matrix(0.995 -9.979774e-02 9.979774e-02 0.995 223.9903 71.1378)" class="st0 st6 st9">I</text>
		</g>
		<g class="st2">
			<text transform="matrix(0.9981 6.118437e-02 -6.118437e-02 0.9981 246.2559 68.5268)" class="st0 st6 st8">A</text>
		</g>
		<g class="st2">
			<text transform="matrix(0.9634 0.2679 -0.2679 0.9634 282.331 70.7228)" class="st0 st6 st8">N</text>
		</g>
		<g class="st2">
			<text transform="matrix(0.8982 0.4396 -0.4396 0.8982 320.8086 82.1808)" class="st0 st6 st8">S</text>
		</g>
		<g class="st2">
			<text transform="matrix(0.8402 0.5422 -0.5422 0.8402 346.2534 95.2606)" class="st0 st6 st8"> </text>
		</g>
		<g class="st2">
			<text transform="matrix(0.7619 0.6477 -0.6477 0.7619 358.9498 102.9194)" class="st0 st6 st8">F</text>
		</g>
		<g class="st2">
			<text transform="matrix(0.6171 0.7869 -0.7869 0.6171 383.4328 123.1078)" class="st0 st6 st8">O</text>
		</g>
		<g class="st2">
			<text transform="matrix(0.4341 0.9009 -0.9009 0.4341 409.3057 156.7805)" class="st0 st6 st8">R</text>
		</g>
		<g class="st2">
			<text transform="matrix(0.3183 0.948 -0.948 0.3183 44.645 308.0721)" class="st0 st6 st10">L</text>
		</g>
		<g class="st2">
			<text transform="matrix(0.4517 0.8922 -0.8922 0.4517 57.0838 342.472)" class="st0 st6 st10">I</text>
		</g>
		<g class="st2">
			<text transform="matrix(0.5823 0.813 -0.813 0.5823 68.7861 365.6455)" class="st0 st6 st11">B</text>
		</g>
		<g class="st2">
			<text transform="matrix(0.7192 0.6948 -0.6948 0.7192 92.4591 397.5484)" class="st0 st6 st10">E</text>
		</g>
		<g class="st2">
			<text transform="matrix(0.8351 0.5501 -0.5501 0.8351 120.7524 424.145)" class="st0 st6 st10">R</text>
		</g>
		<g class="st2">
			<text transform="matrix(0.9198 0.3923 -0.3923 0.9198 154.6474 445.7408)" class="st0 st6 st10">T</text>
		</g>
		<g class="st2">
			<text transform="matrix(0.9761 0.2173 -0.2173 0.9761 191.0099 460.5914)" class="st0 st6 st10">Y</text>
		</g>
		<g class="st2">
			<text transform="matrix(0.9963 8.546697e-02 -8.546697e-02 0.9963 229.5347 468.0239)" class="st0 st6 st10"> </text>
		</g>
		<g class="st2">
			<text transform="matrix(0.9982 -6.047915e-02 6.047915e-02 0.9982 247.7193 470.0732)" class="st0 st6 st10">&amp;</text>
		</g>
		<g class="st2">
			<text transform="matrix(0.9791 -0.2034 0.2034 0.9791 291.878 465.9898)" class="st0 st6 st11"> </text>
		</g>
		<g class="st2">
			<text transform="matrix(0.9553 -0.2955 0.2955 0.9553 308.6773 462.4228)" class="st0 st6 st10">J</text>
		</g>
		<g class="st2">
			<text transform="matrix(0.901 -0.4338 0.4338 0.901 333.2392 454.8338)" class="st0 st6 st10">U</text>
		</g>
		<g class="st2">
			<text transform="matrix(0.8199 -0.5725 0.5725 0.8199 367.0835 437.7121)" class="st0 st6 st11">S</text>
		</g>
		<g class="st2">
			<text transform="matrix(0.7181 -0.6959 0.6959 0.7181 392.4053 419.8018)" class="st0 st6 st10">T</text>
		</g>
		<g class="st2">
			<text transform="matrix(0.607 -0.7947 0.7947 0.607 419.4133 392.3007)" class="st0 st6 st11">I</text>
		</g>
		<g class="st2">
			<text transform="matrix(0.4773 -0.8788 0.8788 0.4773 434.6944 372.7327)" class="st0 st6 st10">C</text>
		</g>
		<g class="st2">
			<text transform="matrix(0.3005 -0.9538 0.9538 0.3005 455.0348 333.2716)" class="st0 st6 st11">E</text>
		</g>
		<g class="st2">
			<defs>
				<rect id="SVGID_5_" x="-145" y="-57" width="792" height="612"/>
			</defs>
			<clipPath id="SVGID_6_">
				<use xlink:href="#SVGID_5_"  style="overflow:visible;"/>
			</clipPath>
			<circle class="st12" cx="253.2" cy="252.1" r="163"/>
		</g>
		<g class="st2">
			<text transform="matrix(1 0 0 1 306.8125 319.5283)"><tspan x="0" y="0" class="st13 st6 st14 st15">E</tspan><tspan x="16.7" y="0" class="st13 st6 st14">S</tspan><tspan x="29.9" y="0" class="st13 st6 st14">T</tspan><tspan x="45.1" y="0" class="st13 st6 st14">.</tspan></text>
		</g>
		<g class="st2">
			<text transform="matrix(1 0 0 1 301.5923 344.2422)"><tspan x="0" y="0" class="st13 st6 st14 st15">202</tspan><tspan x="44.2" y="0" class="st13 st6 st14">0</tspan></text>
		</g>
		<g class="st2">
			<defs>
				<rect id="SVGID_7_" x="-145" y="-57" width="792" height="612"/>
			</defs>
			<clipPath id="SVGID_8_">
				<use xlink:href="#SVGID_7_"  style="overflow:visible;"/>
			</clipPath>
			<polygon class="st16" points="49.1,263.7 49.2,271.9 41.8,274.6 49.2,277 49.3,285.7 54.2,278.6 61.7,280.9 57.1,274.4 
				61.9,267.4 54,270.2 			"/>
			<polygon class="st16" points="48.8,229.5 47.2,237.6 39.4,238.7 46.3,242.5 44.6,251.1 50.8,245.1 57.7,248.9 54.5,241.6 
				60.6,235.6 52.2,236.8 			"/>
			<polygon class="st16" points="55.7,197.6 52.7,205.2 44.9,204.9 50.9,209.9 47.7,218.1 54.9,213.2 61,218.2 59.1,210.4 
				66.2,205.7 57.8,205.4 			"/>
			<polygon class="st16" points="456.9,262.3 457.1,270.5 464.5,272.9 457.2,275.5 457.4,284.3 452.2,277.2 444.8,279.9 
				449.3,273.2 444.2,266.3 452.2,268.9 			"/>
			<polygon class="st16" points="456.2,228.1 458,236.1 465.8,236.9 459.1,241 461,249.5 454.6,243.7 447.9,247.7 450.9,240.3 
				444.5,234.6 452.9,235.5 			"/>
			<polygon class="st16" points="448.3,196.3 451.5,203.9 459.4,203.4 453.5,208.5 456.9,216.6 449.6,212 443.7,217.2 445.3,209.3 
				438,204.8 446.5,204.2 			"/>
			<circle class="st17" cx="252" cy="252.5" r="245"/>
		</g>
	</g>
</g>
</svg>
