<?xml version="1.0" encoding="utf-8"?>
<!-- Generator: Adobe Illustrator 22.1.0, SVG Export Plug-In . SVG Version: 6.00 Build 0)  -->
<svg version="1.1" id="Layer_1" xmlns="http://www.w3.org/2000/svg" xmlns:xlink="http://www.w3.org/1999/xlink" x="0px" y="0px"
	 viewBox="0 0 504 505" style="enable-background:new 0 0 504 505;" xml:space="preserve">
<style type="text/css">
	.st0{fill:#FFFFFF;}
	.st1{clip-path:url(#SVGID_2_);}
	.st2{clip-path:url(#SVGID_4_);fill:#ED1C2C;}
	.st3{clip-path:url(#SVGID_4_);fill:#2B3990;}
	.st4{clip-path:url(#SVGID_4_);fill:none;stroke:#2B3990;stroke-width:1.5;stroke-miterlimit:10;}
	.st5{font-family:'Rockwell-Bold';}
	.st6{font-size:45.0002px;}
	.st7{font-size:45.0001px;}
	.st8{font-size:45px;}
	.st9{font-size:43.8134px;}
	.st10{font-size:43.8133px;}
	.st11{clip-path:url(#SVGID_6_);fill:none;stroke:#FFFFFF;stroke-width:10.422;stroke-miterlimit:10;}
	.st12{clip-path:url(#SVGID_6_);fill:none;stroke:#2B3990;stroke-width:10;stroke-miterlimit:10;}
	.st13{clip-path:url(#SVGID_6_);fill:#FFFFFF;}
</style>
<circle class="st0" cx="251" cy="252" r="247.5"/>
<g>
	<g>
		<defs>
			<rect id="SVGID_1_" x="-136" y="-56" width="792" height="612"/>
		</defs>
		<clipPath id="SVGID_2_">
			<use xlink:href="#SVGID_1_"  style="overflow:visible;"/>
		</clipPath>
		<g class="st1">
			<defs>
				<rect id="SVGID_3_" x="-136" y="-56" width="792" height="612"/>
			</defs>
			<clipPath id="SVGID_4_">
				<use xlink:href="#SVGID_3_"  style="overflow:visible;"/>
			</clipPath>
			<path class="st2" d="M412.4,199.3c-75.1-22.9-150.3-29.4-220.5,29.4c3.6-3.3,7.2-6.7,10.8-10.1c65.7-42.3,108-63.4,205.6-34.8
				l-5.2-26.7c-67.1-12.1-118.7-3-166.4,30c37.5-32.3,82.9-58,163.3-45.5v-4.4l-2.4-16.7c-32.5-0.9-62-0.5-98.7,16.7
				c0,0-30.6,11.8-84.4,66.6c-63,64.2-133.8,50-177.2,30c0,0-1.2,18.4-0.6,18.9c34,24.4,100.7,23,151.7-20.9
				c40.2-28.5,91.7-45.5,194.3-17.2c16.9,5.8,27,10.6,34.3,14.9l8,4.5l-5.8-32.5L412.4,199.3z"/>
			<path class="st2" d="M37.4,261.5c0,0,27,15.4,83.8,5.7c-42.8,16-84.5,9.1-84.5,9.1S37.9,260.9,37.4,261.5"/>
			<path class="st2" d="M202.5,211.5c0,0,63.9-77.1,138.4-90.8c8.5-1.2,14.7-2.7,22.2-2.8l-6.5-4.8c-71,3.5-135.6,74.9-172.3,100.6
				C184.3,213.7,192.5,214.1,202.5,211.5"/>
			<path class="st2" d="M176.3,212c39.8-22.7,99.7-83.3,151.8-97.9c10.2-2.8,15.7-3.5,21.2-3.8l-9.8-6.5c-7.2,0.8-14.5,2.5-22.2,5.8
				c-54.1,20.6-93.1,64.2-153.6,98.4C163.8,208,170.1,211.9,176.3,212"/>
			<path class="st2" d="M157.9,203.1c55.2-25.3,116.7-89.9,176.4-102.6l-12.3-6c-72,24.7-100.3,71.7-171.3,100.3
				C150.6,194.8,153.4,199.7,157.9,203.1"/>
			<path class="st3" d="M147.7,195.6c-8.8,2.5-17,4.2-24.8,5.3l-3.6,4.1l3.6,5.9l-6.4-2.7l-4.5,4.8l0.7-6.4l-6.6-2.8l7-1.5l0-0.4
				c-8.4,0.6-16.1,0.3-23.1-0.5l-1.6,1.8l3.9,6.4l-7-3l-4.9,5.2l0.8-6.9l-7.1-3l7.6-1.6l0-0.2c-29.9-5.7-34.8-13.8-34.8-13.8
				c9.3,6-9.6,40.4-9.6,40.8c39.2,24.4,109.2,32.2,160.7-12.2C180.6,218.9,156.2,214.8,147.7,195.6 M62.3,218.5l-6.6-2.8l-4.7,4.9
				l0.7-6.6l-6.8-2.9l7.3-1.5l0.7-6.6l3.4,5.7l6.8-1.4l-4.5,5.1L62.3,218.5z M111.4,234.7l-7.7-3.3l-5.4,5.8l0.8-7.7l-7.9-3.3
				l8.5-1.8l0.8-7.7l4,6.6l7.9-1.7l-5.3,6L111.4,234.7z M152.2,225.8l-7.7-3.3l-5.4,5.8l0.8-7.7l-7.9-3.3l8.5-1.8l0.8-7.7l4,6.6
				l7.9-1.7l-5.3,6L152.2,225.8z"/>
			<polygon class="st3" points="128.6,166.4 123,167.6 120.1,162.9 119.5,168.4 113.5,169.6 119.1,172 118.5,177.5 122.4,173.4 
				127.9,175.7 124.8,170.7 			"/>
			<polygon class="st3" points="142.2,145.7 137.4,146.7 135,142.8 134.5,147.3 129.5,148.4 134.2,150.4 133.7,155 136.9,151.5 
				141.6,153.5 139,149.3 			"/>
			<polygon class="st3" points="67.9,188 62.3,189.2 59.4,184.5 58.8,189.9 52.8,191.2 58.4,193.6 57.8,199.1 61.7,195 67.2,197.3 
				64.1,192.2 			"/>
			<polygon class="st3" points="122.2,183.6 114.3,185.3 110.2,178.7 109.4,186.4 100.9,188.2 108.8,191.5 108,199.3 113.5,193.5 
				121.2,196.8 116.9,189.6 			"/>
			<polygon class="st3" points="166.5,157 154.5,159.6 148.5,149.6 147.2,161.1 134.4,163.8 146.4,168.9 145.1,180.5 153.3,171.8 
				165,176.8 158.5,166 			"/>
			<line class="st4" x1="255.8" y1="277.5" x2="270.4" y2="213.5"/>
			<path class="st4" d="M270.1,278.5c0,0,0.2-65.2,0.2-64.3l14.7,64"/>
			<line class="st4" x1="359.1" y1="277.5" x2="373.8" y2="213.5"/>
			<path class="st4" d="M373.4,278.5c0,0,0.2-65.2,0.2-64.3l14.7,64"/>
			<path class="st3" d="M380.3,202.9c-4.7-0.9-5.6,4.2-2.6,4.1c0.3,0,0.9-0.1,1.1,0.2c2.3,2.3-1.2,5.8-7.9,2.4
				c-1.6-0.8-3.6-2.2-5.2-3.6c-15.4-14.9-31.7-13.1-41.5-3.7c0.3-4.4,0.5-10,0.5-16.1c0-6.3-0.2-12.1-0.5-16.6
				c5.8,0.1,6-0.4,6.1-2.8c0.1-1.9-2.4-2.8-2.4-2.8s-2.4-4.2-3.4-6.1s-0.6-4.1-3.5-5.1s-4.7,0-11.2,1.7c-5.9,1.5-8.6,1.5-12,1.5
				s-6.7,0.5-13,5.2c0,0-12.3,7.3-23.2,13.7c-10.8,6.3-8.7,7.2-15.5,10.2c-6.8,3-19.7,9-22.5,9.8c-2.8,0.8-6-0.2-10.7,0.3
				c-0.2-4.8,1.2-10.8,2.8-12.8c1.7-2,8.3-2.5,8.5-6.7c0.2-4.2,0-10,0.2-12.3c0.2-2.3,1-6.8-1.8-9.7c-1.2-2.3,0-2.8,1.3-4.5
				c1.3-1.7,2.5-2.8,0.3-5.5c-2.2-2.7-1.8-2.7-2.7-4c-0.8-1.3-2.7-0.7-2.7-0.7s0.5-2.8-1.7-4.2c-2.2-1.3-5.3-1.2-5.5-3.5
				c-0.2-2.3-1.3-6.8-5.2-6.2c-3.8,0.7-5.5,3-5,5c-3.2-0.8-7.5-3-10.2-1c-2.7,2-2.2,5-6,7.3c-3.8,2.3-9,5.5-7,11.8
				c-1.3,2.8,0,6.2-0.2,7.7c-2.3,0.5-7-1.8-8.8,4.5c-1.8,6.3,4.5,17.3,9.8,17.7c4.2,0.8,6.4,1.8,5.2,4c-1.3,2.5,4.2,1.5,4.5,0.8
				c0,0-3.2,12.1-9.7,20.8c-5.7,7.7-10.9,18.5-7.2,31.7c-1,4.5-2.4,10.9-4.5,17.8c-1.7,3.8-3.5,8.8-6.2,10.5
				c-2.7,1.7-6.7,4.7-9.7,14.8c-1.3,2.8-1.5,6.2-2.8,6c-1.3-0.2-2.3-2.5-4.3-3.2c-0.1,0-0.3-0.1-0.4-0.1c0.4-0.3,0.6-0.7,0.5-1.2
				l0-0.2c-0.1-0.4-0.3-0.7-0.6-0.9c0.3-0.3,0.4-0.7,0.4-1.1l0-0.2c-0.1-0.4-0.3-0.7-0.6-0.9c0.3-0.3,0.4-0.7,0.4-1.1l0-0.2
				c-0.1-0.4-0.3-0.7-0.6-0.9c0.3-0.3,0.4-0.7,0.4-1.1l0-0.2c-0.1-0.4-0.3-0.7-0.6-0.9c0.3-0.3,0.4-0.7,0.4-1.1l0-0.2
				c-0.1-0.4-0.3-0.7-0.6-0.9c0.3-0.3,0.4-0.7,0.4-1.1l0-0.2c-0.1-0.4-0.3-0.7-0.6-0.9c0.3-0.3,0.4-0.7,0.4-1.1l0-0.2
				c-0.1-0.4-0.3-0.7-0.6-0.9c0.3-0.3,0.4-0.7,0.4-1.1l0-0.2c-0.1-0.4-0.3-0.7-0.6-0.9c0.3-0.3,0.4-0.7,0.4-1.1l0-0.2
				c-0.1-0.3-0.2-0.6-0.5-0.8c0.8-0.6,1.3-1.5,1.1-2.6l-0.6-3.5c-0.2-1.4-1.6-2.4-3-2.2l-5.4,0.9c-1.4,0.2-2.4,1.6-2.2,3l0.6,3.5
				c0.2,1,0.9,1.8,1.9,2.1c-0.2,0.3-0.3,0.6-0.2,0.9l0,0.2c0.1,0.4,0.3,0.7,0.6,0.9c-0.3,0.3-0.4,0.7-0.4,1.1l0,0.2
				c0.1,0.4,0.3,0.7,0.6,0.9c-0.3,0.3-0.4,0.7-0.4,1.1l0,0.2c0.1,0.4,0.3,0.7,0.6,0.9c-0.3,0.3-0.4,0.7-0.4,1.1l0,0.2
				c0.1,0.4,0.3,0.7,0.6,0.9c-0.3,0.3-0.4,0.7-0.4,1.1l0,0.2c0.1,0.4,0.3,0.7,0.6,0.9c-0.3,0.3-0.4,0.7-0.4,1.1l0,0.2
				c0.1,0.4,0.3,0.7,0.6,0.9c-0.3,0.3-0.4,0.7-0.4,1.1l0,0.2c0.1,0.4,0.3,0.7,0.6,0.9c-0.3,0.3-0.4,0.7-0.4,1.1l0,0.2
				c0.1,0.4,0.3,0.7,0.6,0.9c-0.3,0.3-0.4,0.7-0.4,1.1l0,0.2c0,0.2,0.1,0.3,0.2,0.5c-2.3,0.2-4.7,1.2-3.5,6.8
				c1.2,4.3,0.2,8.2-0.4,10.2c-0.6,1.8,0.7,5.2,2.5,6.5c-3.6,1.4-7.6,3.4-10.7,5.8c-1.8,1.5-1,2,0.2,6s3.8,11.2,3.8,11.2
				s1.7,2.2,3.9-1.2c0.5-1.3-2.2-8.5,7.7-14.7l25.2,136.9c0,0,68.9,30,73.1,7.7c4.8-25.3,10.5-58.8,12.7-101.6
				c0.2-27.5-0.5-37.8-0.8-47c-0.2-9.2,2.1-14.4-3.2-26.9c-5.3-12.6-3.3-16.3-4.1-22.8s-1.8-8.8-2-11.2s3-3.2,3.5-12.5
				c0.2-5.8,0-7-7.2-12.8c-4.8-3.8-8-6.5-8-6.5s12.2-5.6,17.7-7.8c7.8-3.2,17.9-8.1,21.8-11.8c11.5-10.7,16-19,26.5-26.8
				c7.5,2.8,16,1.2,17.5-0.2c2.5,3,4.4,3.4,7.9,1.6c-0.3,4.3-0.4,9.6-0.4,15.5c0,6.3,0.2,12,0.5,16.4c-9.8-9.7-26.3-11.8-41.9,3.3
				c-1.6,1.4-3.6,2.8-5.2,3.6c-6.7,3.3-10.2-0.2-7.9-2.4c0.2-0.3,0.8-0.2,1.1-0.2c3,0.1,2.1-5-2.6-4.1c-3.9,0.7-6.8,8.5,1.3,11.5
				c8.2,3.1,17.3-2.3,23.8-6c7.5-4.2,22.9-4.9,31.9,5.1c0.1,5.2,0.5,9.1,1,9.1c0.5,0,0.9-3.9,1-9.1c9.1-9.9,24.3-9.2,31.8-5
				c6.5,3.6,15.6,9,23.8,6C387.1,211.3,384.2,203.6,380.3,202.9 M174.4,369.6c-2.5,37.3,1.8,53.2-0.8,71.7l-21.2-131.3
				c11.3,1.4,12,9,13,9.9c3.5,2.1,4-0.6,4-0.6s-0.9-7.6-1.5-11.8c-0.6-4.1-0.1-4.9-2.4-5.5c-4.5-1-9.9-0.9-14.1-0.5
				c0.4-0.2,0.7-0.4,1-0.5c3.2-2,12.8-10.2,14.5-12c1.7-1.8,10.2-9.2,12-13.8c2.2-5.3,4-3.8,5.5-15.7c0.1-0.4,0.1-0.8,0.2-1.2
				c8,11.2,16.3,20.6,16.8,27.3C202.4,297.8,178.2,311.7,174.4,369.6"/>
			<path class="st3" d="M253.2,277.6c-0.4,1.3-0.6,2.7-0.6,4.1c0,8.9,7.8,16.2,17.5,16.2c9.7,0,17.5-7.2,17.5-16.2
				c0-1.4-0.2-2.8-0.6-4.1H253.2z"/>
			<path class="st3" d="M356.6,277.6c-0.4,1.3-0.6,2.7-0.6,4.1c0,8.9,7.8,16.2,17.5,16.2c9.7,0,17.5-7.2,17.5-16.2
				c0-1.4-0.2-2.8-0.6-4.1H356.6z"/>
			<path class="st3" d="M252.4,22.6c-126.8,0-229.6,102.8-229.6,229.6s102.8,229.6,229.6,229.6S482,379.1,482,252.2
				S379.2,22.6,252.4,22.6 M252.4,424.9c-95.3,0-172.6-77.3-172.6-172.6S157,79.6,252.4,79.6c95.3,0,172.6,77.3,172.6,172.6
				S347.7,424.9,252.4,424.9"/>
		</g>
		<g class="st1">
			<text transform="matrix(0.4085 -0.9128 0.9128 0.4085 77.2843 192.8618)" class="st0 st5 st6">V</text>
		</g>
		<g class="st1">
			<text transform="matrix(0.5482 -0.8364 0.8364 0.5482 92.8456 159.9232)" class="st0 st5 st7">I</text>
		</g>
		<g class="st1">
			<text transform="matrix(0.677 -0.7359 0.7359 0.677 104.7648 140.9355)" class="st0 st5 st7">R</text>
		</g>
		<g class="st1">
			<text transform="matrix(0.8157 -0.5785 0.5785 0.8157 128.7643 114.4315)" class="st0 st5 st7">G</text>
		</g>
		<g class="st1">
			<text transform="matrix(0.9039 -0.4278 0.4278 0.9039 163.9522 90.7481)" class="st0 st5 st7">I</text>
		</g>
		<g class="st1">
			<text transform="matrix(0.9637 -0.2671 0.2671 0.9637 183.9283 80.6442)" class="st0 st5 st7">N</text>
		</g>
		<g class="st1">
			<text transform="matrix(0.995 -9.979774e-02 9.979774e-02 0.995 223.5606 70.6768)" class="st0 st5 st8">I</text>
		</g>
		<g class="st1">
			<text transform="matrix(0.9981 6.118437e-02 -6.118437e-02 0.9981 245.8262 68.0659)" class="st0 st5 st7">A</text>
		</g>
		<g class="st1">
			<text transform="matrix(0.9634 0.2679 -0.2679 0.9634 281.9009 70.2616)" class="st0 st5 st7">N</text>
		</g>
		<g class="st1">
			<text transform="matrix(0.8982 0.4396 -0.4396 0.8982 320.379 81.7199)" class="st0 st5 st7">S</text>
		</g>
		<g class="st1">
			<text transform="matrix(0.8402 0.5422 -0.5422 0.8402 345.8236 94.7997)" class="st0 st5 st7"> </text>
		</g>
		<g class="st1">
			<text transform="matrix(0.7619 0.6477 -0.6477 0.7619 358.52 102.4584)" class="st0 st5 st7">F</text>
		</g>
		<g class="st1">
			<text transform="matrix(0.6171 0.7869 -0.7869 0.6171 383.0031 122.6469)" class="st0 st5 st7">O</text>
		</g>
		<g class="st1">
			<text transform="matrix(0.4341 0.9009 -0.9009 0.4341 408.8751 156.3197)" class="st0 st5 st7">R</text>
		</g>
		<g class="st1">
			<text transform="matrix(0.3183 0.948 -0.948 0.3183 44.2154 307.6101)" class="st0 st5 st9">L</text>
		</g>
		<g class="st1">
			<text transform="matrix(0.4517 0.8922 -0.8922 0.4517 56.6535 342.0102)" class="st0 st5 st9">I</text>
		</g>
		<g class="st1">
			<text transform="matrix(0.5823 0.813 -0.813 0.5823 68.3565 365.1837)" class="st0 st5 st10">B</text>
		</g>
		<g class="st1">
			<text transform="matrix(0.7192 0.6948 -0.6948 0.7192 92.0293 397.0866)" class="st0 st5 st9">E</text>
		</g>
		<g class="st1">
			<text transform="matrix(0.8351 0.5501 -0.5501 0.8351 120.323 423.683)" class="st0 st5 st9">R</text>
		</g>
		<g class="st1">
			<text transform="matrix(0.9198 0.3923 -0.3923 0.9198 154.2179 445.2787)" class="st0 st5 st9">T</text>
		</g>
		<g class="st1">
			<text transform="matrix(0.9761 0.2173 -0.2173 0.9761 190.5801 460.1294)" class="st0 st5 st9">Y</text>
		</g>
		<g class="st1">
			<text transform="matrix(0.9963 8.546697e-02 -8.546697e-02 0.9963 229.105 467.562)" class="st0 st5 st9"> </text>
		</g>
		<g class="st1">
			<text transform="matrix(0.9982 -6.047915e-02 6.047915e-02 0.9982 247.2896 469.6113)" class="st0 st5 st9">&amp;</text>
		</g>
		<g class="st1">
			<text transform="matrix(0.9791 -0.2034 0.2034 0.9791 291.4483 465.528)" class="st0 st5 st10"> </text>
		</g>
		<g class="st1">
			<text transform="matrix(0.9553 -0.2955 0.2955 0.9553 308.2476 461.9609)" class="st0 st5 st9">J</text>
		</g>
		<g class="st1">
			<text transform="matrix(0.901 -0.4338 0.4338 0.901 332.8097 454.3717)" class="st0 st5 st9">U</text>
		</g>
		<g class="st1">
			<text transform="matrix(0.8199 -0.5725 0.5725 0.8199 366.6537 437.2505)" class="st0 st5 st10">S</text>
		</g>
		<g class="st1">
			<text transform="matrix(0.7181 -0.6959 0.6959 0.7181 391.9756 419.3398)" class="st0 st5 st9">T</text>
		</g>
		<g class="st1">
			<text transform="matrix(0.607 -0.7947 0.7947 0.607 418.9837 391.8382)" class="st0 st5 st10">I</text>
		</g>
		<g class="st1">
			<text transform="matrix(0.4773 -0.8788 0.8788 0.4773 434.2649 372.2707)" class="st0 st5 st9">C</text>
		</g>
		<g class="st1">
			<text transform="matrix(0.3005 -0.9538 0.9538 0.3005 454.6051 332.8097)" class="st0 st5 st10">E</text>
		</g>
		<g class="st1">
			<defs>
				<rect id="SVGID_5_" x="-136" y="-56" width="792" height="612"/>
			</defs>
			<clipPath id="SVGID_6_">
				<use xlink:href="#SVGID_5_"  style="overflow:visible;"/>
			</clipPath>
			
				<ellipse transform="matrix(0.7071 -0.7071 0.7071 0.7071 -103.8257 253.1029)" class="st11" cx="253.6" cy="251.9" rx="169.9" ry="169.9"/>
			<circle class="st12" cx="253.6" cy="251.9" r="163"/>
			<polygon class="st13" points="51.4,260.1 51.5,268.3 44.1,271 51.5,273.4 51.6,282.1 56.5,275 64,277.4 59.3,270.8 64.2,263.8 
				56.2,266.6 			"/>
			<polygon class="st13" points="51.1,225.9 49.5,234 41.7,235.1 48.5,238.9 46.8,247.5 53.1,241.5 59.9,245.3 56.7,238 62.9,232.1 
				54.5,233.3 			"/>
			<polygon class="st13" points="58,194 55,201.6 47.1,201.3 53.1,206.3 50,214.5 57.2,209.6 63.2,214.6 61.4,206.8 68.5,202.1 
				60,201.8 			"/>
			<polygon class="st13" points="457.9,258.7 458.1,266.9 465.6,269.3 458.2,271.9 458.5,280.7 453.3,273.7 445.9,276.3 
				450.3,269.6 445.2,262.7 453.3,265.3 			"/>
			<polygon class="st13" points="457.1,224.5 458.9,232.5 466.7,233.3 460,237.4 462,245.9 455.6,240.1 448.8,244.1 451.8,236.7 
				445.5,231 453.9,231.9 			"/>
			<polygon class="st13" points="449.1,192.8 452.3,200.3 460.2,199.8 454.3,204.9 457.8,213 450.4,208.4 444.5,213.6 446.1,205.7 
				438.8,201.3 447.3,200.7 			"/>
			<circle class="st12" cx="252.4" cy="252.2" r="245"/>
		</g>
	</g>
</g>
</svg>
